<svg id="Groupe_1743" data-name="Groupe 1743" xmlns="http://www.w3.org/2000/svg" xmlns:xlink="http://www.w3.org/1999/xlink" width="1130.054" height="738.164" viewBox="0 0 1130.054 738.164">
  <defs>
    <style>
      .cls-1, .cls-11 {
        fill: #13659a;
      }

      .cls-1, .cls-12, .cls-3 {
        opacity: 0.1;
      }

      .cls-2 {
        fill: #565661;
      }

      .cls-4 {
        fill: #bcbec9;
      }

      .cls-5 {
        fill: #efeff0;
      }

      .cls-6 {
        fill: #fff;
      }

      .cls-7 {
        fill: url(#linear-gradient);
      }

      .cls-8 {
        fill: #a26565;
      }

      .cls-9 {
        fill: #454b69;
      }

      .cls-10 {
        opacity: 0.05;
      }

      .cls-13 {
        fill: #a1616a;
      }

      .cls-14 {
        fill: #464353;
      }

      .cls-15 {
        fill: #535461;
      }

      .cls-16 {
        fill: #9d9cb5;
      }

      .cls-17 {
        fill: none;
        stroke: #535461;
        stroke-miterlimit: 10;
        stroke-width: 2px;
      }

      .cls-18 {
        fill: #dfe6f5;
      }

      .cls-19 {
        fill: #474157;
      }

      .cls-20 {
        fill: #4c4c78;
      }

      .cls-21 {
        fill: #c8cad7;
      }

      .cls-22 {
        fill: #ededf4;
      }
    </style>
    <linearGradient id="linear-gradient" x1="1.03" y1="0.503" x2="0.03" y2="0.503" gradientUnits="objectBoundingBox">
      <stop offset="0" stop-color="gray" stop-opacity="0.251"/>
      <stop offset="0.54" stop-color="gray" stop-opacity="0.122"/>
      <stop offset="1" stop-color="gray" stop-opacity="0.102"/>
    </linearGradient>
  </defs>
  <path id="Tracé_4388" data-name="Tracé 4388" class="cls-1" d="M580.61,213.68c71.37,12.06,142.64,6.89,211.2-.63s136.95-17.34,208.35-14.38c45.93,1.9,97.08,11,129.15,37.45,30.87,25.44,35.68,59.77,35.74,90.76.08,23.31-1.94,47.43-18.46,66-11.48,12.88-29.15,22.11-42.46,34-46.31,41.3-32.23,106.33-1.84,161.62,14.26,25.94,31.7,51.45,41.41,78s11,55-6.38,76.65c-17.22,21.47-50.53,33.57-85.26,39.84-70.54,12.74-149.13,4.83-225.17-5.89-168.29-23.81-334.84-60.93-501.03-97.96-61.49-13.71-123.25-27.48-182.49-47.24-32.9-11-66.4-24.69-87.65-46-27-27-27.68-63.93-1.66-86,43.66-37,142.48-28.79,176.25-71.09,18.58-23.29,10.49-54.92-4.3-82.86-31.71-59.92-93-119.12-85.06-178.86,5.48-41,47.29-74.93,103.33-83.77,58.74-9.26,134.18,8.3,168,49.56C447.05,175.39,517.59,203,580.61,213.68Z" transform="translate(-34.998 -80.906)"/>
  <rect id="Rectangle_183" data-name="Rectangle 183" class="cls-2" width="283.43" height="65.63" transform="translate(486.662 359.264)"/>
  <rect id="Rectangle_184" data-name="Rectangle 184" class="cls-3" width="283.43" height="65.63" transform="translate(486.662 359.264)"/>
  <path id="Tracé_4389" data-name="Tracé 4389" class="cls-4" d="M368.52,427.03l-1.99,175.21,27.26,68.82,2.11-244.03Z" transform="translate(367.662 0.024)"/>
  <path id="Tracé_4390" data-name="Tracé 4390" class="cls-2" d="M638.94,371.84,362.99,373.5v48.88H638.94Z" transform="translate(128.162 0.024)"/>
  <path id="Tracé_4391" data-name="Tracé 4391" class="cls-4" d="M638.94,427.03l-23.61,3.33V668.4l23.61-72.81Z" transform="translate(-124.178 0.024)"/>
  <rect id="Rectangle_185" data-name="Rectangle 185" class="cls-5" width="132.99" height="282.6" transform="translate(349.192 361.894)"/>
  <rect id="Rectangle_186" data-name="Rectangle 186" class="cls-2" width="111.71" height="217.23" transform="translate(359.832 369.744)"/>
  <rect id="Rectangle_187" data-name="Rectangle 187" class="cls-3" width="111.71" height="217.23" transform="translate(359.832 369.744)"/>
  <rect id="Rectangle_188" data-name="Rectangle 188" class="cls-2" width="111.71" height="48.21" transform="translate(359.832 374.194)"/>
  <rect id="Rectangle_189" data-name="Rectangle 189" class="cls-2" width="111.71" height="102.4" transform="translate(359.832 427.054)"/>
  <rect id="Rectangle_190" data-name="Rectangle 190" class="cls-2" width="111.71" height="102.4" transform="translate(359.832 535.774)"/>
  <rect id="Rectangle_191" data-name="Rectangle 191" class="cls-3" width="111.71" height="102.4" transform="translate(359.832 535.774)"/>
  <ellipse id="Ellipse_105" data-name="Ellipse 105" class="cls-2" cx="7.2" cy="9.2" rx="7.2" ry="9.2" transform="translate(459.682 644.494)"/>
  <ellipse id="Ellipse_106" data-name="Ellipse 106" class="cls-2" cx="7.2" cy="9.2" rx="7.2" ry="9.2" transform="translate(359.832 644.934)"/>
  <path id="Tracé_4392" data-name="Tracé 4392" class="cls-5" d="M360.99,671.06h-9.64L354,364.32h14.64Z" transform="translate(410.102 0.024)"/>
  <path id="Tracé_4393" data-name="Tracé 4393" class="cls-5" d="M647.91,361.87V668.4h-8.97V364.32Z" transform="translate(-156.758 0.024)"/>
  <path id="Tracé_4394" data-name="Tracé 4394" class="cls-5" d="M638.94,419.38v10.98H366.46v-7.98Z" transform="translate(124.692 0.024)"/>
  <path id="Tracé_4395" data-name="Tracé 4395" class="cls-6" d="M745.33,341.26H399.89l-50.2,16.62v9.64l430.88-3.32v-9.81Z" transform="translate(-0.168 0.024)"/>
  <path id="Tracé_4396" data-name="Tracé 4396" class="cls-4" d="M780.57,354.39l-430.88,3.49v9.64l430.88-3.32Z" transform="translate(-0.168 0.024)"/>
  <path id="Tracé_4397" data-name="Tracé 4397" class="cls-7" d="M421.6,549.64l2-.3v-.25c.06-.47.13-.93.2-1.4-.82.65-1.6,1.3-2.32,1.95Z" transform="translate(319.772 -80.906)"/>
  <path id="Tracé_4398" data-name="Tracé 4398" class="cls-8" d="M407.228,704.05c-1.3-.3-2.62-.55-3.94-.73a47.42,47.42,0,0,0-26.62,3.92c.84,6.18,1.67,12.57-.11,18.54-1.24,4.2-3.73,8-4.26,12.38a7.3,7.3,0,0,0-5.75,5.08,11.05,11.05,0,0,0-.57,3.56,19,19,0,0,0,.56,4.44,4.48,4.48,0,0,0,4.8,4c7.74.88,15.33-2.17,22.53-5.16l14-5.82c1.64-.68,3.29-1.37,4.86-2.21a26.629,26.629,0,0,0,7.79-6.37,3.55,3.55,0,0,0,.93-1.68c.26-1.76-1.8-2.81-3.11-4a6.232,6.232,0,0,1-1-1.22c-1.55-2.34-1.7-5.57-2.63-8.33-2.2-6.55-9-10.77-11.4-17.16-.13-.35-.25-.7-.35-1.06" transform="translate(377.604 -80.906)"/>
  <path id="Tracé_4399" data-name="Tracé 4399" class="cls-3" d="M365.978,746.8a19,19,0,0,0,.56,4.44,4.48,4.48,0,0,0,4.8,4c7.74.88,15.33-2.17,22.53-5.16l14-5.82c1.64-.68,3.29-1.37,4.86-2.21a26.629,26.629,0,0,0,7.79-6.37,3.55,3.55,0,0,0,.93-1.68c.26-1.76-1.8-2.81-3.11-4a6.232,6.232,0,0,1-1-1.22c-3.86.83-8.65,3.26-11.6,4.2a35.222,35.222,0,0,0-8.44,3.53c-3.68,2.36-6.33,6-9.45,9s-7.15,5.73-11.5,5.36a19,19,0,0,1-6.54-2.26Z" transform="translate(377.605 -80.906)"/>
  <path id="Tracé_4400" data-name="Tracé 4400" class="cls-9" d="M416.633,604.69a4.63,4.63,0,0,0,1.7,5c1.31.81,3,.7,4.3,1.58,1.61,1.13,1.84,3.37,2.12,5.31,1,6.67,4.31,12.72,7.14,18.85s5.22,12.82,4.18,19.48c-.71,4.52-2.93,9.34-.85,13.41.51,1,1.27,1.89,1.85,2.86,2.85,4.76,1.23,10.79,1.34,16.33a3.23,3.23,0,0,0,.39,1.77,4.89,4.89,0,0,0,1.58,1.22,8.38,8.38,0,0,1,3.41,6.43,24.57,24.57,0,0,1-.9,7.46,4.44,4.44,0,0,1-1.23,2.6,4.6,4.6,0,0,1-2.69.76,59.839,59.839,0,0,0-18.26,4.44c-3.79,1.58-7.47,3.56-11.5,4.32a3,3,0,0,1-2.36-.25,3.25,3.25,0,0,1-1-1.73c-1.55-5.1-3.12-10.36-2.59-15.66.23-2.28.84-4.51,1-6.79.7-9-5.39-17.12-7.32-26-.87-4-.87-8.14-1.49-12.18-1.68-11.07-7.78-21-10.13-31.95a34.731,34.731,0,0,0-1.52-6c-1.75-4.24-5.8-7.68-5.89-12.27a4.78,4.78,0,0,1,.76-2.86,6.48,6.48,0,0,1,3.57-2,121.876,121.876,0,0,1,16.55-3.34,31.35,31.35,0,0,1,7.78-.54,22.9,22.9,0,0,1,9.52,3.36C419.953,600.68,417.473,601.25,416.633,604.69Z" transform="translate(343.339 -80.906)"/>
  <path id="Tracé_4401" data-name="Tracé 4401" class="cls-10" d="M416.633,604.69a4.63,4.63,0,0,0,1.7,5c1.31.81,3,.7,4.3,1.58,1.61,1.13,1.84,3.37,2.12,5.31,1,6.67,4.31,12.72,7.14,18.85s5.22,12.82,4.18,19.48c-.71,4.52-2.93,9.34-.85,13.41.51,1,1.27,1.89,1.85,2.86,2.85,4.76,1.23,10.79,1.34,16.33a3.23,3.23,0,0,0,.39,1.77,4.89,4.89,0,0,0,1.58,1.22,8.38,8.38,0,0,1,3.41,6.43,24.57,24.57,0,0,1-.9,7.46,4.44,4.44,0,0,1-1.23,2.6,4.6,4.6,0,0,1-2.69.76,59.839,59.839,0,0,0-18.26,4.44c-3.79,1.58-7.47,3.56-11.5,4.32a3,3,0,0,1-2.36-.25,3.25,3.25,0,0,1-1-1.73c-1.55-5.1-3.12-10.36-2.59-15.66.23-2.28.84-4.51,1-6.79.7-9-5.39-17.12-7.32-26-.87-4-.87-8.14-1.49-12.18-1.68-11.07-7.78-21-10.13-31.95a34.731,34.731,0,0,0-1.52-6c-1.75-4.24-5.8-7.68-5.89-12.27a4.78,4.78,0,0,1,.76-2.86,6.48,6.48,0,0,1,3.57-2,121.876,121.876,0,0,1,16.55-3.34,31.35,31.35,0,0,1,7.78-.54,22.9,22.9,0,0,1,9.52,3.36C419.953,600.68,417.473,601.25,416.633,604.69Z" transform="translate(343.339 -80.906)"/>
  <path id="Tracé_4402" data-name="Tracé 4402" class="cls-2" d="M336.05,674.47h8.53l5.58-114.64.39-6.52-7.25-2.55-.49,6.93Z" transform="translate(443.492 0.024)"/>
  <path id="Tracé_4403" data-name="Tracé 4403" class="cls-3" d="M336.05,557.69l7.35,2.14.39-6.52-7.25-2.55Z" transform="translate(450.252 0.024)"/>
  <path id="Tracé_4404" data-name="Tracé 4404" class="cls-2" d="M209.41,698.72l14.07,1.7L288.3,553.31l17.48-1.28,30.7,8.96,5.97,175.15h14.07l-5.54-181.55,33.69.86,60.12,149.66h12.79L394.35,530.2l-2.44-6.74-94.23-3.23L274.19,533.4l-.3.76Z" transform="translate(463.102 0.024)"/>
  <path id="Tracé_4405" data-name="Tracé 4405" class="cls-3" d="M307.6,615.09c20.25,6.1,41.27,12.76,41.27,12.76s19.17,6.69,27.29,0a12.269,12.269,0,0,1,3.39-1.87,16.7,16.7,0,0,1-3.39,1.87l51.9-16.73-2.43-6.73-94.24-3.23L307.9,614.33Z" transform="translate(429.392 -80.906)"/>
  <path id="Tracé_4406" data-name="Tracé 4406" class="cls-6" d="M469.069,586.06l-38.37-8.53s-91.68,17.06-98.5,23.88c0,0,73.34,14.92,81.44,20S469.929,632.11,469.069,586.06Z" transform="translate(363.774 -80.906)"/>
  <path id="Tracé_4407" data-name="Tracé 4407" class="cls-11" d="M290.977,490.17c3,9.51,11.19,18.08,21.16,18.49a3.69,3.69,0,0,0,2.11-.38c1.25-.78,1.28-2.61.77-4s-1.4-2.64-1.54-4.1a2.68,2.68,0,0,1,.06-.89c.26-1.19,1.23-2.25,2.37-2a4,4,0,0,1-.85-5.31,12,12,0,0,0,1.22-1.64c.83-1.7-.46-3.61-1-5.43-1.11-4,1.71-8,1.94-12.17.2-3.73-1.69-7.24-2.16-10.94-.75-6,2.23-11.75,2.58-17.74.24-4.18-.79-8.32-1.94-12.35-1-3.6-2.13-7.24-2.2-11,0-2.73.47-5.43.6-8.15a14.19,14.19,0,0,0-1.31-7.24,5.79,5.79,0,0,0-3.29-2.81c-3.28-1.1-5.43.61-5.91,3.72-.8,5.29-.34,10.69-1.39,16a75,75,0,0,1-4.39,14.49c-1.77,4.22-3.92,8.3-5.28,12.67a69.8,69.8,0,0,0-2.19,11C289,470.38,287.947,480.66,290.977,490.17Z" transform="translate(558.365 -80.906)"/>
  <path id="Tracé_4408" data-name="Tracé 4408" class="cls-8" d="M492.244,732.21a15.51,15.51,0,0,0,10.93,6.44c4.34.54,8.85-.55,13.06.64a4,4,0,0,1,3,2.31,24.553,24.553,0,0,1,.19,2.45c.49,2.67,4,3.27,6.73,3.25l11.26-.07c2.34,0,4.93-.13,6.61-1.75a4.92,4.92,0,0,0,.1-6.48,4.071,4.071,0,0,0-1.26-1,4,4,0,0,0,2.7-3.21,11.94,11.94,0,0,0-.21-4.41c0-4.18-1-11.18-3.94-14.45-3.61-4.07-9.87-9.33-15.32-10.42a12,12,0,0,0-10.38,2.95c-2.58,2.4-4.46,6.16-8,6.58-1.93.24-3.79-.67-5.7-1a10.61,10.61,0,0,0-10.81,5.71,11.26,11.26,0,0,0-1,3.13,13,13,0,0,0,2.04,9.33Z" transform="translate(129.339 -80.906)"/>
  <path id="Tracé_4409" data-name="Tracé 4409" class="cls-3" d="M492.588,732.21a15.51,15.51,0,0,0,10.93,6.44c4.34.54,8.85-.55,13.06.64a4,4,0,0,1,3,2.31,24.553,24.553,0,0,1,.19,2.45c.49,2.67,4,3.27,6.73,3.25l11.26-.07c2.34,0,4.93-.13,6.61-1.75a4.92,4.92,0,0,0,.1-6.48c-6.5-.27-12.89,0-19.37-1.34-2.63-.53-5.22-1.23-7.88-1.6-5.76-.82-11.89-.12-17.18-2.56-4.41-2-7.57-6.07-9.44-10.61a13,13,0,0,0,1.99,9.32Z" transform="translate(128.994 -80.906)"/>
  <path id="Tracé_4410" data-name="Tracé 4410" class="cls-9" d="M296.365,716.4c4,3.1,8.69,5.52,13.73,5.78s10.39-2,12.86-6.38c3.61-6.43.41-15.37,4.83-21.27,1.38-1.85,3.37-3.16,4.83-4.95s2.3-4.48,1-6.38c1.57.6,3.23-.92,3.69-2.54s.17-3.36.45-5c.73-4.35,5-7.14,7.05-11s1.77-8.87,2-13.44a51,51,0,0,1,11.8-30.35c1.36-1.62,3.1-3.27,5.22-3.19-.37-3.66,2.07-7.16,5.23-9s6.92-2.46,10.58-2.82c36.93-3.64,75.41,10.09,110.67-1.46,9.81-3.21,19.27-8.58,25.27-17a29.72,29.72,0,0,0,5.29-22.48v-.14c-1.39-7.1-5.14-8.85-11.35-12.09a136.238,136.238,0,0,0-22.39-9.39c-15-4.69-31.15-6.38-46.63-2.94-7.23,1.62-14.2,4.3-21.44,5.87-2.85.62-5.72,1.06-8.61,1.43-4.49.56-9,.93-13.52,1.45a204.528,204.528,0,0,0-42.46,9.55c-5.13,1.74-10.26,3.73-14.67,6.88A32.5,32.5,0,0,0,326.755,587c-.42,2.94-.43,6-1.07,8.85a45,45,0,0,1-2.4,7,465.631,465.631,0,0,0-20.89,65,15.791,15.791,0,0,1-1.67,4.7c-1.28,2.07-3.48,3.46-4.77,5.53-3,4.88-.11,11.69-2.77,16.77-.92,1.76-2.45,3.15-3.37,4.91C286.815,705.53,291.245,712.43,296.365,716.4Z" transform="translate(354.927 -80.906)"/>
  <path id="Tracé_4411" data-name="Tracé 4411" class="cls-3" d="M457.552,601.5a16.5,16.5,0,0,1-3.63-4,7.46,7.46,0,0,1-1.1-5.17,14.79,14.79,0,0,0,3.89,12.72c2.51,2.57,7.22,5.09,10.89,4.21C467.082,606.32,459.882,603.48,457.552,601.5Z" transform="translate(244.84 -80.906)"/>
  <path id="Tracé_4412" data-name="Tracé 4412" class="cls-3" d="M289.392,551.66a6.71,6.71,0,0,0,4.44,4.58,18.5,18.5,0,0,0,6.59.77h2c26.24-.58,52.76-6.4,78.39-.85a56.748,56.748,0,0,1,9.06,2.67,40.9,40.9,0,0,1,10.41,6v-.14c-1.39-7.1-5.14-8.85-11.35-12.09a136.239,136.239,0,0,0-22.36-9.3c-15-4.69-31.15-6.38-46.63-2.94-7.23,1.62-14.2,4.3-21.44,5.87-2.85.62-5.72,1.06-8.61,1.43a6.91,6.91,0,0,0-.5,4Z" transform="translate(475.481 -80.906)"/>
  <path id="Tracé_4413" data-name="Tracé 4413" class="cls-8" d="M286.464,550.23a6.7,6.7,0,0,0,4.44,4.59,18.27,18.27,0,0,0,6.59.76h2c26.24-.58,52.76-6.4,78.39-.85a57.777,57.777,0,0,1,9.06,2.66,41.2,41.2,0,0,1,10.85,6.4q1.15-3.16,2.29-6.33c.92-2.52-2-3.08-2.56-5.34-.37-1.53.26-3.27.58-4.9a8.556,8.556,0,0,0,.16-1.21c.18-3.61-1.11-5.69-4.07-7.64-8.78-5.8-19.49-9.78-29.51-12.77a73,73,0,0,0-16.4-3.18c-7.88-.46-15.75,1-23.42,2.85-9.43,2.33-18.76,5.41-27.12,10.34-4.1,2.39-8.1,5.39-10.31,9.65a7.6,7.6,0,0,0-.97,4.97Z" transform="translate(478.408 -80.906)"/>
  <path id="Tracé_4414" data-name="Tracé 4414" class="cls-3" d="M293.319,490.17c3,9.51,11.19,18.08,21.16,18.49a3.69,3.69,0,0,0,2.11-.38c1.25-.78,1.28-2.61.77-4s-1.4-2.64-1.54-4.1a2.68,2.68,0,0,1,.06-.89c-5.29-7.46-10.42-15-12.45-23.83a12.74,12.74,0,0,1-.37-4.67c.27-1.8,1.18-3.43,1.68-5.17.88-3.08.47-6.34.22-9.53A88,88,0,0,1,311.8,415c1.35-3.12,2.89-6.28,3.36-9.61a5.79,5.79,0,0,0-3.29-2.81c-3.28-1.1-5.43.61-5.91,3.72-.8,5.29-.34,10.69-1.39,16a75,75,0,0,1-4.39,14.49c-1.77,4.22-3.92,8.3-5.28,12.67a69.8,69.8,0,0,0-2.19,11C291.339,470.38,290.289,480.66,293.319,490.17Z" transform="translate(556.023 -80.906)"/>
  <path id="Tracé_4415" data-name="Tracé 4415" class="cls-3" d="M288.475,550.23a6.7,6.7,0,0,0,4.44,4.59,18.27,18.27,0,0,0,6.59.76h2a43.57,43.57,0,0,1,29-7c3.26.39,6.52,1.15,9.78.85,6.59-.6,11.93-5.34,17.8-8.37a37.38,37.38,0,0,1,41.43,5.62l.57.5a8.55,8.55,0,0,0,.16-1.21c.18-3.61-1.11-5.69-4.07-7.64-8.78-5.8-19.49-9.78-29.51-12.77a73,73,0,0,0-16.4-3.18c-7.88-.46-15.75,1-23.42,2.85-9.43,2.33-18.76,5.41-27.12,10.34-4.07,2.43-8.07,5.43-10.28,9.69a7.6,7.6,0,0,0-.97,4.97Z" transform="translate(476.397 -80.906)"/>
  <path id="Tracé_4416" data-name="Tracé 4416" class="cls-11" d="M281.464,440.69l.14.36c2.24,5.81,6.36,10.72,9,16.38,3.33,7.17,4.15,15.21,4.89,23.09.64,6.75,1.27,13.54.76,20.31-1.28,16.68-9.43,32.5-11.61,48.86a54.309,54.309,0,0,0-.41,11.41c.18,2.41.62,5,2.22,6.78s4.71,2.48,6.43.77c-.77-1.47-1.55-2.93-2.33-4.4,4.57-3.55,11.45-1,16.79-3.22,2.35-1,4.23-2.8,6.2-4.41a43.48,43.48,0,0,1,32.39-9.46c3.26.4,6.52,1.16,9.78.86,6.59-.61,11.93-5.34,17.8-8.37a37.4,37.4,0,0,1,41.43,5.61c1.4,1.3,3.28,2.82,5,2a4.16,4.16,0,0,0,1.55-1.69c6.55-11.19,1.73-25.62-5.27-36.52s-16.27-20.95-19.15-33.58a12.53,12.53,0,0,1-.37-4.67c.27-1.8,1.18-3.43,1.68-5.17.88-3.08.47-6.34.22-9.53a88,88,0,0,1,6.82-41.1c1.6-3.73,3.5-7.51,3.5-11.56,0-6.38-4.57-11.67-8.35-16.8-4.35-5.9-8-12.43-13.51-17.28-5.22-4.61-12.78-7.43-19.24-5.09a119.942,119.942,0,0,0-33.56-3.27c-3.9.18-7.93.59-11.35,2.48-3.66,2-6.29,5.56-9.89,7.69-2.63,1.57-5.66,2.31-8.52,3.41A35.21,35.21,0,0,0,286.144,391c-4,7.75-5,16.66-5.88,25.34C279.424,424.51,278.624,433,281.464,440.69Z" transform="translate(460.979 -80.906)"/>
  <path id="Tracé_4417" data-name="Tracé 4417" class="cls-3" d="M400.707,500.83c-1.28,16.68-9.43,32.5-11.61,48.86,4.36-3.69,10.43-7.4,11.24-11.69.9-4.64,3.78-10.72,4.26-15.41s-2.81-10.42.64-13.64c1.68-1.57-2.79-1.13-1.15-2.74,3.69-3.59,4.6-9.12,4.83-14.25.39-9.08-.76-18.26.91-27.19,1-5.51,3.09-10.76,4.76-16.11,1.94-6.23,3.34-12.61,4.74-19a133.113,133.113,0,0,0,3-17.26c.43-5,.23-10.3-2-14.86s-6.74-8.26-11.8-8.19c-16.92.22-14,23.16-17.72,33.76-1.49,4.22-3.5,8.3-4.31,12.7a33.663,33.663,0,0,0-.48,5.22c2.24,5.81,6.36,10.72,9,16.38,3.33,7.17,4.15,15.21,4.89,23.09C400.587,487.27,401.217,494.06,400.707,500.83Z" transform="translate(356.525 -80.906)"/>
  <path id="Tracé_4418" data-name="Tracé 4418" class="cls-11" d="M412.175,422.85c-1.49,4.22-3.5,8.3-4.31,12.7-1.35,7.37.74,15.2-1.53,22.34a38.919,38.919,0,0,0-1.48,4.67c-.39,2.27.06,4.59.06,6.9,0,3.72-1.17,7.32-2.21,10.89a194.629,194.629,0,0,0-6.95,37.16,46.591,46.591,0,0,1-1.59,10,33.209,33.209,0,0,0-1.08,3.38,17.479,17.479,0,0,0-.19,4.63c.27,4.9.82,9.82.27,14.7s-2.33,9.83-6,13.1c3.28.71,6.75,1.42,9.95.37,4.5-1.47,7.2-6,9.49-10.12,2.9-5.26,13.92-10,15.06-15.91.89-4.63,3.77-10.71,4.25-15.41s-2.8-10.41.65-13.63c1.67-1.57-2.8-1.14-1.15-2.74,3.68-3.59,4.59-9.12,4.82-14.26.39-9.07-.75-18.25.91-27.18,1-5.51,3.09-10.76,4.76-16.12,1.94-6.22,3.34-12.6,4.74-19a131.735,131.735,0,0,0,3-17.26c.43-5,.24-10.31-2-14.87s-6.75-8.25-11.8-8.19C413,389.3,415.9,412.25,412.175,422.85Z" transform="translate(334.057 -80.906)"/>
  <path id="Tracé_4419" data-name="Tracé 4419" class="cls-3" d="M371.755,426.76c-1.58,1.85-3.61,3.88-6,3.52a1.3,1.3,0,0,0,1.77.42,3.8,3.8,0,0,0,1.33-1.53l3.42-5.77c.45-.75,3.55-5.12,4.31-2.6C376.885,421.87,372.525,425.86,371.755,426.76Z" transform="translate(422.697 -80.906)"/>
  <path id="Tracé_4420" data-name="Tracé 4420" class="cls-3" d="M350.14,441.15a7.62,7.62,0,0,1,2.23-5,12.5,12.5,0,0,1,4.13-2.49c3.75-1.54,8.19-2.78,12.26-2.58-1.48,2.16-6.23,3.45-8.61,4.67Q355.09,438.36,350.14,441.15Z" transform="translate(446.152 -80.906)"/>
  <path id="Tracé_4421" data-name="Tracé 4421" class="cls-3" d="M346.9,482.11c.69,5.12,4.88,9,9.12,12s9,5.58,11.77,9.92c1.92,3,2.78,6.48,4.41,9.61,1.8,3.45,4.49,6.35,6.64,9.59s3.83,7.11,3.17,10.95a1.29,1.29,0,0,1-.46.92,1.31,1.31,0,0,1-1.27-.14c-4.36-2.28-6.08-7.49-7.91-12a138.654,138.654,0,0,0-6.48-13.32c-1.08-2-2.27-4.18-4.28-5.29a37.553,37.553,0,0,0-4.22-1.47,14.19,14.19,0,0,1-5.21-4.09,34.34,34.34,0,0,1-8-23.31c.06-1.79.16-10.41,2.85-7.75S346.437,478.63,346.9,482.11Z" transform="translate(438.745 -80.906)"/>
  <path id="Tracé_4422" data-name="Tracé 4422" class="cls-8" d="M319.064,285.74c-8.6,3.75-16,12-15.73,21.35.23,9.82,8.45,19.07,5.62,28.48-1.64,5.46-6.58,9.12-10.49,13.27-14.89,15.76-14.86,43.27.08,59,5.72,6,13.07,10.27,19.12,16,21.33,20.1,22.24,54.87,10.82,81.86a133.137,133.137,0,0,0,26.62,3c4.19,0,9.32-.71,10.84-4.62,1.4-3.61-1-8.49,1.76-11.16,1.3-1.25,3.25-1.42,5-1.71,11.26-1.82,20.5-10.81,24.72-21.4s4-22.51,1.58-33.65c-1.72-8.05-4.41-16.91-.42-24.11,5-9.06,19.38-12.88,19.16-23.24-.18-8.49-10.19-12.62-15.87-18.93-10.48-11.62-5.49-29.65-5.47-45.31,0-13.78-4.82-28-15.08-37.18C366.064,273.62,336.674,278.09,319.064,285.74Z" transform="translate(459.988 -80.906)"/>
  <g id="Groupe_1742" data-name="Groupe 1742" class="cls-12" transform="translate(747.312 224.074)">
    <path id="Tracé_4423" data-name="Tracé 4423" d="M289.432,401.78c4.39-7.92,15.92-11.84,18.6-19.63a11.09,11.09,0,0,1,2.16,6.26c.22,10.36-14.14,14.18-19.16,23.25a18.89,18.89,0,0,0-2,10.42C287.452,415.12,286.062,407.86,289.432,401.78Z" transform="translate(-179.812 -304.98)"/>
    <path id="Tracé_4424" data-name="Tracé 4424" d="M401.731,322.75c-1.8-5.25-4.41-10.55-4.54-16a14.994,14.994,0,0,1,.05-1.77C399.251,311,402.331,316.84,401.731,322.75Z" transform="translate(-381.251 -304.98)"/>
    <path id="Tracé_4425" data-name="Tracé 4425" d="M310.351,350.72c-3.44-10.87-.47-24.35-.46-36.41,0-1.46-.06-2.93-.17-4.39a57.74,57.74,0,0,1,1.78,14.26C311.481,332.79,309.971,342.13,310.351,350.72Z" transform="translate(-202.451 -304.98)"/>
    <path id="Tracé_4426" data-name="Tracé 4426" d="M380.88,397.61c5.72,6,13.07,10.27,19.12,16,10.8,10.17,16.35,24.1,17.74,38.87-2.58-11-7.79-21.13-16.14-29-6-5.7-13.4-9.95-19.12-16a42.49,42.49,0,0,1-11.15-27.06A40.609,40.609,0,0,0,380.88,397.61Z" transform="translate(-371.33 -304.98)"/>
    <path id="Tracé_4427" data-name="Tracé 4427" d="M329.373,498.44c4.19,0,9.32-.72,10.84-4.63,1.4-3.6-1-8.48,1.76-11.16,1.3-1.25,3.26-1.42,5-1.71,11.25-1.81,20.49-10.81,24.71-21.39,3.11-7.82,3.78-16.35,3-24.77.08.33.15.66.22,1,2.38,11.14,2.63,23.07-1.58,33.66s-13.46,19.58-24.71,21.39c-1.78.29-3.74.47-5,1.71-2.79,2.68-.36,7.56-1.76,11.16-1.52,3.91-6.65,4.68-10.84,4.63a133.232,133.232,0,0,1-26.62-3,89.385,89.385,0,0,0,3.23-8.93A132.743,132.743,0,0,0,329.373,498.44Z" transform="translate(-263.263 -304.98)"/>
  </g>
  <path id="Tracé_4428" data-name="Tracé 4428" class="cls-3" d="M388.42,454.83c-2.47,1.86-5.15-5.23-3.62-7C385.21,448.29,388.8,454.57,388.42,454.83Z" transform="translate(392.252 -80.906)"/>
  <path id="Tracé_4429" data-name="Tracé 4429" class="cls-3" d="M404.427,583.17c-2.91-1-6-2-7.9-4.4-1.57-1.93-2.86-9.59.46-5.92C399.807,576,401.137,580.15,404.427,583.17Z" transform="translate(365.716 -80.906)"/>
  <path id="Tracé_4430" data-name="Tracé 4430" class="cls-3" d="M424.732,575.14c.35,2.36,1,4.81,2.67,6.51.31.32,1,.52,1.09.09a25.288,25.288,0,0,1-5.16-3.64c-3.38-3.35-3.84-11.6,1.31-13.79C424.692,567.93,424.182,571.46,424.732,575.14Z" transform="translate(315.781 -80.906)"/>
  <path id="Tracé_4431" data-name="Tracé 4431" class="cls-9" d="M418.732,560.27s28.38-11.15,38.64-10-11.62,17.32-11.62,17.32l-13.08,8.82s-8-3-8.53-3.23S418.732,560.27,418.732,560.27Z" transform="translate(286.21 -80.906)"/>
  <path id="Tracé_4432" data-name="Tracé 4432" class="cls-2" d="M471.031,440.65s-21.32-12.36-49.46,3-32.83,105.75-32.83,105.75,11.51,92.09-32.87,71.6c0,0-81-25.15-89.11-19.61,0,0-7.68,0,7.67,3.41s74.65,22.2,74.65,22.2,19.17,6.7,27.29,0,31.13.86,34.12-45.2a800.989,800.989,0,0,1,10.66-86.56l7.91-23.45Z" transform="translate(429.181 -80.906)"/>
  <path id="Tracé_4433" data-name="Tracé 4433" class="cls-6" d="M351.28,583.07s-9.38-93.38,6-127.07c13.38-29.36-38.36-15.63-51.86-11.63a9.83,9.83,0,0,0-5.18,3.7c-8,11.25-36.7,56.34-28.24,116.67,0,0,3.41,53.73-17.91,62.25l65.69-21.16c5.33-1.72,10.74-3.15,16.2-4.39C342.94,599.86,354.28,595.37,351.28,583.07Z" transform="translate(551.493 -80.906)"/>
  <path id="Tracé_4434" data-name="Tracé 4434" class="cls-2" d="M709.03,676.47H700.5l-5.59-114.64-.38-6.52,7.25-2.55.48,6.93Z" transform="translate(-273.468 0.024)"/>
  <path id="Tracé_4435" data-name="Tracé 4435" class="cls-3" d="M709.03,559.69l-7.35,2.14-.38-6.52,7.25-2.55Z" transform="translate(-280.238 0.024)"/>
  <path id="Tracé_4436" data-name="Tracé 4436" class="cls-8" d="M604.7,713.13a19.226,19.226,0,0,0,1.2,4.58,8.09,8.09,0,0,0,3.65,4.56,9.641,9.641,0,0,0,3.69.73c4.71.28,9.69.21,13.74-2.19a25,25,0,0,0,4.71-3.93,214.9,214.9,0,0,0,24.72-29.4c1.23-1.77,2.5-3.86,1.95-6a93.21,93.21,0,0,1-26.77-12.25,12.92,12.92,0,0,0-3.76-2,20.431,20.431,0,0,0-7.06-.26c-2.27.37-2.37.44-3.24,3-1.44,4.33-1.2,9-2.82,13.33a41.3,41.3,0,0,1-3.74,6.84C606.793,697.13,603.583,705.38,604.7,713.13Z" transform="translate(-97.921 -80.906)"/>
  <path id="Tracé_4437" data-name="Tracé 4437" class="cls-3" d="M604.478,713.13a19.226,19.226,0,0,0,1.2,4.58,8.09,8.09,0,0,0,3.65,4.56,9.641,9.641,0,0,0,3.69.73c4.71.28,9.69.21,13.74-2.19a25,25,0,0,0,4.71-3.93,214.9,214.9,0,0,0,24.72-29.4c1.23-1.77,2.5-3.86,1.95-6a92.813,92.813,0,0,1-9.16-3.06l-.15.11c-3.07,2.19-5.3,5.33-7.47,8.41l-7,9.85a29,29,0,0,1-4.39,5.3,29.379,29.379,0,0,1-6.79,4.08c-3.29,1.59-6.58,3.18-10,4.46C610.968,711.52,607.228,711.87,604.478,713.13Z" transform="translate(-97.696 -80.906)"/>
  <path id="Tracé_4438" data-name="Tracé 4438" class="cls-9" d="M682.558,606.34a30.1,30.1,0,0,0,2.5,4.77A204.161,204.161,0,0,1,706.378,661c1.38-.31,2.16,1.57,2.15,3s0,3.23,1.32,3.75c.39.15.83.15,1.21.32.84.38,1.08,1.45,1.2,2.37l1.18,8.66c.41,3,.77,6.25-.7,8.9a14.229,14.229,0,0,1-3.87,4l-19.52,15.4c-.8.63-1.79,1.3-2.75.95-2.19-.8-.25-4.72-2-6.31-1.16-1.09-3-.27-4.61-.4-2.1-.16-3.69-2.09-4.22-4.12a19.589,19.589,0,0,1-.11-6.26,5.679,5.679,0,0,0-.32-2.81,6.821,6.821,0,0,0-2.39-2.29,25.66,25.66,0,0,1-10.51-21.64,12,12,0,0,0-.14-3.83,10.09,10.09,0,0,0-1.81-3.16c-7.09-9.59-13-20-18.87-30.39-3.38-6-6.82-12.09-8-18.85a1.75,1.75,0,0,1,1.44-2.4,68.009,68.009,0,0,1,8.94-2.14c9.19-1.86,18.06-4.73,27-7.49S679.868,599.12,682.558,606.34Z" transform="translate(-182.236 -80.906)"/>
  <path id="Tracé_4439" data-name="Tracé 4439" class="cls-2" d="M835.67,700.72l-14.08,1.7L756.78,555.31l-17.48-1.28-30.71,8.96-5.96,175.15H688.56l5.54-181.55-33.69.86L600.29,707.11H587.5L650.73,532.2l2.43-6.74,94.24-3.23,23.49,13.17.3.76Z" transform="translate(-293.078 0.024)"/>
  <path id="Tracé_4440" data-name="Tracé 4440" class="cls-3" d="M807.4,617.09c-20.25,6.1-41.27,12.76-41.27,12.76s-19.17,6.69-27.29,0a12.269,12.269,0,0,0-3.39-1.87,16.7,16.7,0,0,0,3.39,1.87l-51.9-16.73,2.4-6.73,94.24-3.23,23.49,13.17Z" transform="translate(-329.288 -80.906)"/>
  <path id="Tracé_4441" data-name="Tracé 4441" class="cls-6" d="M645.931,588.06l38.37-8.53s91.68,17.06,98.5,23.88c0,0-73.34,14.92-81.44,20S645.071,634.11,645.931,588.06Z" transform="translate(-263.669 -80.906)"/>
  <path id="Tracé_4442" data-name="Tracé 4442" class="cls-8" d="M570.059,725.14c2.31,4.4,8,5.64,13,5.71a54.891,54.891,0,0,0,20.32-3.63c3.7-1.42,7.25-3.25,11.07-4.29,5.69-1.56,12-1.43,17-4.56a20,20,0,0,0,6.39-6.93c.29-.49.57-1,.83-1.52,2.39-4.65,3.5-10.06,2.17-15.08s-6.16-10.55-11.76-10.47c-6.65.1-14.58,3.25-21,4.88-8,2-16,4.31-23.07,8.54-5.92,3.56-11.15,8.67-13.94,14.91a25.274,25.274,0,0,0-1.32,3.72C568.879,719.3,568.679,722.51,570.059,725.14Z" transform="translate(-45.417 -80.906)"/>
  <path id="Tracé_4443" data-name="Tracé 4443" class="cls-3" d="M572.8,725.14c2.31,4.4,8,5.64,13,5.71a54.891,54.891,0,0,0,20.32-3.63c3.7-1.42,7.25-3.25,11.07-4.29,5.69-1.56,12-1.43,17-4.56a20,20,0,0,0,6.39-6.93c.29-.49.57-1,.83-1.52-1,.08-1.92.18-2.42.23-6.14.59-12,2.83-17.86,4.52a100.32,100.32,0,0,1-25,3.9c-6,.17-12.26-.27-17.5-3.2a45.9,45.9,0,0,0-4.86-2.67,25.264,25.264,0,0,0-1.32,3.72C571.625,719.3,571.425,722.51,572.8,725.14Z" transform="translate(-48.162 -80.906)"/>
  <path id="Tracé_4444" data-name="Tracé 4444" class="cls-9" d="M639.327,535c13-2.13,26.24-2.65,39.42-3.17l16.12-.64a7.31,7.31,0,0,1,3.39.41,22.086,22.086,0,0,1,2.65,2c1.62,1.1,3.69,1.22,5.64,1.33a280.771,280.771,0,0,1,41.16,5.34c7,1.43,14.27,3.3,19.53,8.13,5.56,5.11,8,12.9,8.19,20.44s-1.79,14.95-3.88,22.19a101.091,101.091,0,0,0-4.37,26.86,50.254,50.254,0,0,1-.29,7.57,36.217,36.217,0,0,1-2.11,7l-7.36,19.65c-.65,1.72-1.29,3.43-2,5.11s-1.39,3-2,4.58c-.9,2.16-1.61,4.4-2.32,6.63l-4.9,15.39-.64,2c-1.77,5.54-3.58,11.18-6.92,15.94s-8.51,8.6-14.32,8.89a43.863,43.863,0,0,0-5.62.15,22.721,22.721,0,0,0-4.61,1.67,35.17,35.17,0,0,1-13.77,2.69c-4.35,0-9.18-1.21-11.54-4.87-1.3-2-1.64-4.46-2-6.82-.63-4.74-1.24-9.69.37-14.19,1-2.69,2.68-5,3.84-7.65,1.62-3.61,2.15-7.6,3.2-11.41a43.58,43.58,0,0,1,13.3-21.16,208.567,208.567,0,0,0,5-27.38,24.1,24.1,0,0,1,1.21-6c1.17-3,3.54-5.43,4.53-8.49.93-2.84.65-6.12,2.34-8.57-14.07,3.87-28,3-42.61,2.77a116.406,116.406,0,0,1-14-.8,44,44,0,0,0-6.56-.7c-4.52,0-8.76,2-12.91,3.76-11.73,5-24.09,8.93-36.83,9.47-13.15.55-26.15-2.54-39-5.6-5.65-1.35-11.52-2.81-16-6.52s-7-10.4-4.24-15.49c2.1-3.83,6.45-5.71,10.51-7.31,11.24-4.44,22.54-8.77,33.37-14.14C608.837,556,621.207,538,639.327,535Z" transform="translate(-157.655 -80.906)"/>
  <path id="Tracé_4445" data-name="Tracé 4445" class="cls-13" d="M686.41,489.76c1.57,3.4,4.21,6.18,6.16,9.38a23.77,23.77,0,0,1,3,17.65,20.08,20.08,0,0,1-11.25,13.69,28.231,28.231,0,0,1-7.8,1.88c-3.52.43-7.27.52-10.38-1.18a15.16,15.16,0,0,1-5.53-5.78c-2.69-4.5-4.22-9.57-5.62-14.62-2.59-9.32-4.8-18.88-4.48-28.55.11-3.33.77-7.08,3.53-9a11.87,11.87,0,0,1,4.64-1.52l13.19-2.36c2.55-.46,7-2.33,9.21-.49s2.38,7.28,2.76,9.83C684.44,482.46,684.81,486.29,686.41,489.76Z" transform="translate(-181.557 -80.906)"/>
  <path id="Tracé_4446" data-name="Tracé 4446" class="cls-13" d="M792.352,451.08,795.8,480a133,133,0,0,1,1.23,15.56c0,2.9-.09,6.12,1.83,8.29a7.559,7.559,0,0,0,3.44,2.07c4.19,1.3,8.76.14,12.76-1.65,2.34-1,4.73-2.45,5.79-4.78a11.878,11.878,0,0,0,.75-5.07c0-17.25-1.63-35.24-10.64-49.94a10.89,10.89,0,0,0-3.17-3.66c-2.5-1.6-5.77-1.15-8.6-.28-1.74.53-6.44,1.12-7.55,2.67S792.112,449.09,792.352,451.08Z" transform="translate(-447.829 -80.906)"/>
  <circle id="Ellipse_107" data-name="Ellipse 107" class="cls-13" cx="36" cy="36" r="36" transform="translate(400.052 193.594)"/>
  <path id="Tracé_4447" data-name="Tracé 4447" class="cls-13" d="M760.4,364.15a18.569,18.569,0,0,0,2.23,8q-27.57-4.2-55-9.36a25.83,25.83,0,0,0,12.76-15,42.359,42.359,0,0,0,1.62-10.69,123.585,123.585,0,0,0-.33-17.21c6.4.67,12.46,3.07,18.56,5.13a182.99,182.99,0,0,0,18.69,5.23c3.05.68,6.12,1.26,9.2,1.8,3.6.64,5.33.63,2.83,3.79C764.252,344.28,759.462,352.86,760.4,364.15Z" transform="translate(-314.72 -80.906)"/>
  <path id="Tracé_4448" data-name="Tracé 4448" class="cls-11" d="M755.92,359.34c4.75.71,9.73,1.51,13.52,4.45a51.014,51.014,0,0,1,4.11,3.95c7.53,7.31,18.16,10.25,27.3,15.41a12,12,0,0,1,3.88,3.05c1,1.39,1.51,3.16,2.56,4.54,1.22,1.6,3.15,2.6,4.1,4.37s.74,3.65.84,5.53c.23,4.13,1.79,8.05,3,12,5.55,18.91,2.51,40,10.91,57.86a8.13,8.13,0,0,1-4.42,4.62,25.1,25.1,0,0,1-6.56,1.41l-18.61,2.31c-2.66.33-5.48.64-7.91-.47a92.935,92.935,0,0,1,4.69,18.93,94.275,94.275,0,0,0,2.1,11.72c2.56,8.8,9,16.13,16.63,21.14a6.149,6.149,0,0,1,2.35,2.17c1,2-.48,4.24-1.53,6.2-3.05,5.68-2.63,12.5-2.59,18.94s-.61,13.51-5.11,18.13c-2.66,2.73-6.3,4.21-9.84,5.62l-29.11,11.63a101.443,101.443,0,0,1-14.82,5c-7.67,1.75-15.64,1.68-23.51,1.34q-7.8-.33-15.58-1a12.121,12.121,0,0,1-5.89-1.55,11,11,0,0,1-3.45-4.68c-4.05-8.81-5.41-19.09-11.69-26.47-4.31-5.07-11-9.12-11.49-15.75-.23-3.3,1.24-6.51,1.26-9.82,0-4.07-2.13-7.94-2-12,.27-6.61,6.5-11.65,7.49-18.19,2.52-16.58-5.9-33.14-11.07-49.09-.93-2.85-2.13-6-4.87-7.22s-6.6-.58-7.58-3.28c-2.47-6.78-3.06-14.73-2.74-21.94.18-4.17,1.66-8.25,1.49-12.43-.12-2.94-1.06-5.8-1.31-8.73-.38-4.43.79-8.83,2-13.11a20.536,20.536,0,0,1,1.56-4.42,21,21,0,0,1,2.6-3.57l4.87-5.79c2.28-2.71,4.69-5.52,8-6.89,1.07-2.65,4.49-4.48,6.94-5.94a71.115,71.115,0,0,1,7.64-3.75l27.54-12.16a11.279,11.279,0,0,1,3.27-1.06,10.589,10.589,0,0,1,4.86,1C738.15,354.68,746.92,358,755.92,359.34Z" transform="translate(-321.298 -80.906)"/>
  <path id="Tracé_4449" data-name="Tracé 4449" class="cls-14" d="M778.811,316.76c1.06-3.73,3.77-6.95,4.18-10.81.37-3.43-1.14-6.75-2-10.09s-.83-7.42,1.82-9.64c.44-.38,1-.72,1.16-1.28.32-1-.69-1.91-1-2.92-.57-2,1.9-4.21,1-6.13-.51-1.05-1.79-1.42-2.91-1.75-4.28-1.27-8.62-4.09-9.55-8.46-3.35,1.4-6.92-1.23-9.49-3.78s-5.73-5.46-9.27-4.69l.79,1.61a25.6,25.6,0,0,0-16.93-.19h1.68a23.22,23.22,0,0,0-13.39,4.53c.43,0,.47.64.3,1-1.4,3.27-5,5-8.47,5.81-2.09.5-4.36.86-5.89,2.36s-1.56,4.63.46,5.35a52.6,52.6,0,0,0-11.61,6.3c-1,.73-2.13,1.72-2,3a9.759,9.759,0,0,0,.62,1.87,6.471,6.471,0,0,1-.21,3.2l-1.11,4.58c-1.22,5.09-2.18,11.22,1.53,14.91a13.69,13.69,0,0,0,2.41,16.16,6.66,6.66,0,0,0,5,8.61c-1.23,1.92-.1,4.66,1.84,5.86s4.38,1.21,6.64,1,4.55-.72,6.81-.38c3.29.51,6.51,2.75,9.68,1.75a21.727,21.727,0,0,0,3.39-1.82c2.22-1.19,4.8-1.46,7.26-2a33.54,33.54,0,0,0,11.73-5,13.75,13.75,0,0,0,5.39-6c2.2-5.56-1.5-12.85,2.39-17.38,2.28-2.64,6.8-2.68,9.35-.42,1.27,1.13,1.44,3.51,2.76,4.36a17.451,17.451,0,0,0,5.64.48Z" transform="translate(-315.018 -80.906)"/>
  <path id="Tracé_4450" data-name="Tracé 4450" class="cls-3" d="M657.448,603.5a16.5,16.5,0,0,0,3.63-4,7.46,7.46,0,0,0,1.1-5.17,14.79,14.79,0,0,1-3.89,12.72c-2.51,2.57-7.22,5.09-10.89,4.21C647.918,608.32,655.118,605.48,657.448,603.5Z" transform="translate(-144.735 -80.906)"/>
  <path id="Tracé_4451" data-name="Tracé 4451" class="cls-2" d="M643.969,442.65s21.32-12.36,49.46,3,32.83,105.75,32.83,105.75-11.51,92.09,32.87,71.6c0,0,81-25.15,89.11-19.61,0,0,7.68,0-7.67,3.41s-74.65,22.2-74.65,22.2-19.17,6.7-27.29,0-31.13.86-34.12-45.2a800.983,800.983,0,0,0-10.66-86.56l-7.91-23.45Z" transform="translate(-329.076 -80.906)"/>
  <path id="Tracé_4452" data-name="Tracé 4452" class="cls-6" d="M763.72,585.07s9.38-93.38-6-127.07c-13.38-29.36,38.36-15.63,51.86-11.63a9.83,9.83,0,0,1,5.18,3.7c8,11.25,36.7,56.34,28.24,116.67,0,0-3.41,53.73,17.91,62.25l-65.69-21.16c-5.33-1.72-10.74-3.15-16.2-4.39C772.06,601.86,760.72,597.37,763.72,585.07Z" transform="translate(-451.388 -80.906)"/>
  <ellipse id="Ellipse_108" data-name="Ellipse 108" class="cls-1" cx="97.44" cy="15.65" rx="97.44" ry="15.65" transform="translate(42.682 654.444)"/>
  <rect id="Rectangle_192" data-name="Rectangle 192" class="cls-15" width="6.27" height="141.17" transform="translate(136.992 370.284)"/>
  <path id="Tracé_4453" data-name="Tracé 4453" class="cls-2" d="M982.384,591.93l.39,6.36.56,9,.23,3.74.55,9,.24,3.74.56,9,6.32,102.07a17.3,17.3,0,0,0,17.26,16.16h32.87a17.28,17.28,0,0,0,17.24-16.22l6.34-102.08.55-9,.23-3.74.57-9,.23-3.74.55-9,.4-6.36a9,9,0,0,0-8.94-9.51h-67.22a9,9,0,0,0-8.93,9.58Z" transform="translate(-884.802 -80.906)"/>
  <path id="Tracé_4454" data-name="Tracé 4454" class="cls-16" d="M947.82,517.36l.56,8.97h83.18l.56-8.97Z" transform="translate(-849.848 0.024)"/>
  <path id="Tracé_4455" data-name="Tracé 4455" class="cls-16" d="M948.61,530.08l.55,8.98h81.61l.56-8.98Z" transform="translate(-849.848 0.024)"/>
  <path id="Tracé_4456" data-name="Tracé 4456" class="cls-16" d="M949.4,542.8l.56,8.97h80.02l.56-8.97Z" transform="translate(-849.848 0.024)"/>
  <path id="Tracé_4457" data-name="Tracé 4457" class="cls-11" d="M944.41,504.1c-36.52,26.42-51.73,67.74-51.73,67.74s44-1.51,80.53-27.93,51.72-67.73,51.72-67.73S980.92,477.69,944.41,504.1Z" transform="translate(-752.558 -80.906)"/>
  <path id="Tracé_4458" data-name="Tracé 4458" class="cls-17" d="M1024.93,476.18s-45.67,25.35-60.33,46.34-71.92,49.32-71.92,49.32" transform="translate(-752.558 -80.906)"/>
  <path id="Tracé_4459" data-name="Tracé 4459" class="cls-11" d="M981.16,450.88C961.28,465.25,953,487.75,953,487.75s24-.83,43.83-15.2,28.1-36.87,28.1-36.87S1001.03,436.5,981.16,450.88Z" transform="translate(-812.878 -80.906)"/>
  <path id="Tracé_4460" data-name="Tracé 4460" class="cls-17" d="M1024.98,435.68s-24.86,13.8-32.83,25.22S953,487.75,953,487.75" transform="translate(-812.928 -80.906)"/>
  <path id="Tracé_4461" data-name="Tracé 4461" class="cls-11" d="M1081.15,486.6c22.83,25.09,27.66,57.88,27.66,57.88s-32.19-7.9-55-33-27.66-57.88-27.66-57.88S1058.32,461.51,1081.15,486.6Z" transform="translate(-969.908 -80.906)"/>
  <path id="Tracé_4462" data-name="Tracé 4462" class="cls-17" d="M1026.15,453.61s29.74,25.72,37.3,43.44,45.38,47.43,45.38,47.43" transform="translate(-969.928 -80.906)"/>
  <path id="Tracé_4463" data-name="Tracé 4463" class="cls-18" d="M524.33,426.2v2.28h67.61v-1.85a22.72,22.72,0,0,1-5.22-2.78,22.21,22.21,0,0,1-9.28-18.06,21.92,21.92,0,0,1,.69-5.47,22.23,22.23,0,0,1,12.28-14.73H524.79a22.23,22.23,0,0,1,12.28,14.73,21.92,21.92,0,0,1,.68,5.47,22.2,22.2,0,0,1-9.27,18.06,22.872,22.872,0,0,1-4.15,2.35Z" transform="translate(48.782 -80.906)"/>
  <path id="Tracé_4464" data-name="Tracé 4464" class="cls-3" d="M525.86,385.59a22.23,22.23,0,0,1,12.28,14.73H579.2a22.23,22.23,0,0,1,12.28-14.73Z" transform="translate(47.712 -80.906)"/>
  <path id="Tracé_4465" data-name="Tracé 4465" class="cls-18" d="M669,373.94v12.84c0,7.08-5.18,12.83-11.58,12.83H458.51c-6.4,0-11.59-5.75-11.59-12.83V373.94Z" transform="translate(49.132 -80.906)"/>
  <path id="Tracé_4466" data-name="Tracé 4466" class="cls-3" d="M524.33,426.2v2.28h67.61v-1.85a22.72,22.72,0,0,1-5.22-2.78H528.48a22.872,22.872,0,0,1-4.15,2.35Z" transform="translate(48.782 -80.906)"/>
  <rect id="Rectangle_193" data-name="Rectangle 193" class="cls-18" width="112.29" height="6.77" rx="3.385" transform="translate(550.772 343.654)"/>
  <path id="Tracé_4467" data-name="Tracé 4467" class="cls-19" d="M446.92,233.31a11.58,11.58,0,0,1,11.59-11.58H657.42A11.57,11.57,0,0,1,669,233.31V376.44H446.92Z" transform="translate(49.132 -80.906)"/>
  <path id="Tracé_4468" data-name="Tracé 4468" class="cls-20" d="M452.98,238.48v123a5.7,5.7,0,0,0,5.7,5.71H657.24a5.7,5.7,0,0,0,5.7-5.71v-123a5.62,5.62,0,0,0-.76-2.85,5.7,5.7,0,0,0-4.94-2.85H458.68a5.7,5.7,0,0,0-5.7,5.7Z" transform="translate(49.132 -80.906)"/>
  <circle id="Ellipse_109" data-name="Ellipse 109" class="cls-6" cx="2.67" cy="2.67" r="2.67" transform="translate(604.422 143.674)"/>
  <circle id="Ellipse_110" data-name="Ellipse 110" class="cls-6" cx="6.59" cy="6.59" r="6.59" transform="translate(600.502 299.814)"/>
  <path id="Tracé_4469" data-name="Tracé 4469" class="cls-21" d="M453,238.48H662.94a5.7,5.7,0,0,0-5.7-5.7H458.7a5.7,5.7,0,0,0-5.7,5.7Z" transform="translate(49.112 -80.906)"/>
  <circle id="Ellipse_111" data-name="Ellipse 111" class="cls-22" cx="1.43" cy="1.43" r="1.43" transform="translate(704.942 153.294)"/>
  <circle id="Ellipse_112" data-name="Ellipse 112" class="cls-22" cx="1.43" cy="1.43" r="1.43" transform="translate(700.662 153.294)"/>
  <circle id="Ellipse_113" data-name="Ellipse 113" class="cls-22" cx="1.43" cy="1.43" r="1.43" transform="translate(696.382 153.294)"/>
</svg>
