<svg xmlns="http://www.w3.org/2000/svg" width="755.952" height="648.134" viewBox="0 0 755.952 648.134">
  <defs>
    <style>
      .cls-1 {
        fill: #d0cde1;
      }

      .cls-2 {
        fill: #575a89;
      }

      .cls-3 {
        fill: #fff;
        opacity: 0.2;
      }

      .cls-4 {
        fill: #fbbebe;
      }

      .cls-5 {
        fill: #2f2e41;
      }

      .cls-6 {
        fill: #a0616a;
      }

      .cls-7 {
        fill: #13659a;
      }
    </style>
  </defs>
  <g id="Groupe_1709" data-name="Groupe 1709" transform="translate(0 -0.001)">
    <path id="Tracé_3865" data-name="Tracé 3865" class="cls-1" d="M367.983,552.461l-1.418-.921a45.019,45.019,0,0,0-7.406-57.759c-.685-.625-1.392-1.232-2.1-1.839a34.172,34.172,0,0,1-5.581-5.6c-2-2.75-3.528-7.021-1.8-10.76l1.534.712c-1.424,3.072-.093,6.691,1.628,9.052a32.413,32.413,0,0,0,5.316,5.317c.72.618,1.439,1.236,2.137,1.873A46.712,46.712,0,0,1,367.983,552.461Z" transform="translate(-183.223 -129.885)"/>
    <path id="Tracé_3866" data-name="Tracé 3866" class="cls-1" d="M1008.387,792.105l-1.418-.921a45.019,45.019,0,0,0-7.405-57.759c-.687-.627-1.395-1.234-2.1-1.842a34.2,34.2,0,0,1-5.578-5.6c-2-2.75-3.528-7.021-1.795-10.761l1.534.712c-1.424,3.073-.093,6.691,1.628,9.053a32.4,32.4,0,0,0,5.312,5.314c.721.619,1.442,1.239,2.141,1.877A46.709,46.709,0,0,1,1008.387,792.105Z" transform="translate(-282.192 -166.92)"/>
    <path id="Tracé_3867" data-name="Tracé 3867" class="cls-2" d="M617.765,738.957a86.407,86.407,0,0,0-100.513-48.873c-1.714.439-3.456.942-5.14,1.428-4.7,1.357-9.561,2.76-14.56,3.008-6.245.3-14.341-1.631-18.307-8l1.436-.893c3.579,5.751,11.023,7.5,16.787,7.209,4.8-.238,9.567-1.613,14.174-2.943,1.7-.49,3.45-1,5.189-1.442a88.1,88.1,0,0,1,102.48,49.829Z" transform="translate(-203.362 -162.346)"/>
    <path id="Tracé_3868" data-name="Tracé 3868" class="cls-2" d="M628.988,346.113l-1.663-.307a86.4,86.4,0,0,0-55.6-96.956c-1.664-.6-3.387-1.166-5.053-1.712-4.649-1.523-9.457-3.1-13.728-5.706-5.341-3.26-10.938-9.416-10.63-16.917l1.689.069c-.277,6.768,4.892,12.395,9.822,15.4,4.1,2.505,8.817,4.049,13.374,5.542,1.678.549,3.413,1.118,5.1,1.728a88.1,88.1,0,0,1,56.685,98.853Z" transform="translate(-213.108 -91.085)"/>
    <path id="Tracé_3869" data-name="Tracé 3869" class="cls-1" d="M386.149,450.3c-7.131,13.153-20.647,19.064-31.68,14.536-.157-.062-.315-.129-.468-.2l-.176.609a.439.439,0,0,1-.023.067,2.362,2.362,0,0,1-3.615,1.3l-2.829-1.856a2.855,2.855,0,0,1-.724-4.067l.041-.051.474-.606.105-.137c-8.328-8.662-9.783-24.118-2.817-36.966,7.9-14.577,23.645-20.267,35.165-12.708S394.053,435.723,386.149,450.3Z" transform="translate(-181.843 -119.268)"/>
    <ellipse id="Ellipse_23" data-name="Ellipse 23" class="cls-3" cx="7.219" cy="2.614" rx="7.219" ry="2.614" transform="translate(169.296 297.133) rotate(-30.313)"/>
    <path id="Tracé_3870" data-name="Tracé 3870" class="cls-2" d="M355.046,474.966a.444.444,0,0,1-.023.067l-7.127-4.677.474-.606,7.319,4.8c-.157-.062-.315-.129-.468-.2Z" transform="translate(-183.063 -128.985)"/>
    <ellipse id="Ellipse_24" data-name="Ellipse 24" class="cls-1" cx="377.976" cy="23.725" rx="377.976" ry="23.725" transform="translate(0 600.686)"/>
    <path id="Tracé_3871" data-name="Tracé 3871" class="cls-4" d="M733.2,684.245l.93,17.665,19.523-1.86-1.859-17.664Z" transform="translate(-113.31 -105.457)"/>
    <path id="Tracé_3872" data-name="Tracé 3872" class="cls-4" d="M644.126,660.053l.93,17.664,19.523-1.859-1.859-17.664Z" transform="translate(-99.545 -101.719)"/>
    <path id="Tracé_3873" data-name="Tracé 3873" class="cls-5" d="M884.912,467.02l-70.658,12.087-4.648,128.3-18.594,81.815,29.751,13.016,28.821-80.885,10.227-71.588,7.438,71.588.93,90.182,45.556-2.789-10.892-176.6a164.3,164.3,0,0,0-17.93-65.127Z" transform="translate(-251.543 -128.563)"/>
    <path id="Tracé_3874" data-name="Tracé 3874" class="cls-5" d="M887.561,763.513s-6.508-7.438-6.508-4.649-3.719,29.751-3.719,29.751,25.1,7.438,25.1,12.086,36.259,12.086,35.329,2.789-32.54-44.626-32.54-44.626S892.209,757,887.561,763.513Z" transform="translate(-264.884 -173.568)"/>
    <path id="Tracé_3875" data-name="Tracé 3875" class="cls-5" d="M797.8,739.019s-1.982-9.682-3.36-7.258-17.936,24.026-17.936,24.026,18.146,18.872,15.849,22.913,25.548,28.427,29.334,19.885-6.233-54.877-6.233-54.877S805.061,735.659,797.8,739.019Z" transform="translate(-249.302 -169.416)"/>
    <path id="Tracé_3876" data-name="Tracé 3876" class="cls-5" d="M647.077,269.286l51.471,4.921,17.157-46.755L666.43,215.583Z" transform="translate(-100.001 -33.317)"/>
    <circle id="Ellipse_25" data-name="Ellipse 25" class="cls-4" cx="26.032" cy="26.032" r="26.032" transform="translate(563.175 174.364)"/>
    <path id="Tracé_3877" data-name="Tracé 3877" class="cls-4" d="M829.23,322.416s0,17.664-13.946,25.1,33.47,15.805,33.47,15.805l4.649-15.805s-13.946-6.508-1.859-21.383Z" transform="translate(-254.898 -106.215)"/>
    <path id="Tracé_3878" data-name="Tracé 3878" class="cls-2" d="M847.084,346.268s-17.027,10.547-31.292,1.09l-5.9-1.09-17.664,3.719-8.367,31.61,31.61,79.025s54.853,9.3,66.01-11.157l-6.508-83.674-17.665-21.383Z" transform="translate(-250.439 -109.614)"/>
    <path id="Tracé_3879" data-name="Tracé 3879" class="cls-2" d="M713.395,266.227l30.68-42.767-2.789-4.648-39.977-20.454V185.342L763.6,202.077l4.215,6.678L731.059,288.54Z" transform="translate(-108.382 -28.643)"/>
    <path id="Tracé_3880" data-name="Tracé 3880" class="cls-2" d="M628.921,276.744l-1.859-.93-46.486-1.859L615.9,243.274l-11.157-13.946-52.993,39.977v9.3l75.307,31.61Z" transform="translate(-85.27 -35.441)"/>
    <path id="Tracé_3881" data-name="Tracé 3881" class="cls-4" d="M766.819,297.932l6.508-3.719s13.946-18.594,19.524-11.157-13.016,21.383-13.016,21.383l-10.227,3.719Z" transform="translate(-247.804 -99.861)"/>
    <path id="Tracé_3882" data-name="Tracé 3882" class="cls-4" d="M850.685,254.317l-10.227-5.578s-30.68,2.789-26.962,9.3,25.1.93,25.1.93l12.086,3.719Z" transform="translate(-254.97 -94.829)"/>
    <path id="Tracé_3883" data-name="Tracé 3883" class="cls-5" d="M821.557,272.854s-11.95,3.983-12.556,19.714a27.9,27.9,0,0,0,.829,7.47c.673,2.852,1.105,8.987-4.109,17.006a168.329,168.329,0,0,0-9.554,16.435l-.037.075,13.124,1.641,2.791-21.754a108.325,108.325,0,0,1,8.6-30.539l.091-.2s5.742,10.663,17.225,10.663l-4.1-4.1s18.045,7.382,24.607,7.382c0,0,4.921,3.281,0,8.2s-14.764,16.4-9.023,25.428.82,11.483.82,11.483l9.023-4.921,4.1-2.461v3.281l21.326-2.461s5.742-.82-6.562-14.764c0,0-3.249-5.415-1.827-10.085a23.558,23.558,0,0,0,.9-11.017C874.466,283.949,863.652,253.377,821.557,272.854Z" transform="translate(-252.334 -97.584)"/>
    <path id="Tracé_3884" data-name="Tracé 3884" class="cls-1" d="M650.261,756.8c-.1-.166-2.5-4.163-3.326-12.464-.761-7.615-.272-20.452,6.385-38.358,12.612-33.922-2.906-61.291-3.065-61.564l.766-.444a67.944,67.944,0,0,1,6.41,18.159,79.222,79.222,0,0,1-3.281,44.157c-12.59,33.864-3.23,49.894-3.134,50.052Z" transform="translate(-229.236 -155.908)"/>
    <circle id="Ellipse_26" data-name="Ellipse 26" class="cls-1" cx="5.752" cy="5.752" r="5.752" transform="translate(410.342 475.007)"/>
    <circle id="Ellipse_27" data-name="Ellipse 27" class="cls-1" cx="5.752" cy="5.752" r="5.752" transform="translate(428.481 496.244)"/>
    <circle id="Ellipse_28" data-name="Ellipse 28" class="cls-1" cx="5.752" cy="5.752" r="5.752" transform="translate(416.094 510.401)"/>
    <circle id="Ellipse_29" data-name="Ellipse 29" class="cls-1" cx="5.752" cy="5.752" r="5.752" transform="translate(431.136 522.347)"/>
    <circle id="Ellipse_30" data-name="Ellipse 30" class="cls-1" cx="5.752" cy="5.752" r="5.752" transform="translate(411.669 540.929)"/>
    <path id="Tracé_3885" data-name="Tracé 3885" class="cls-1" d="M654.86,773.142s-5.752-14.158,11.5-24.776Z" transform="translate(-230.36 -172.042)"/>
    <path id="Tracé_3886" data-name="Tracé 3886" class="cls-1" d="M642.479,774.638s-2.618-15.056-22.877-14.927Z" transform="translate(-225.053 -173.796)"/>
    <path id="Tracé_3887" data-name="Tracé 3887" class="cls-6" d="M244.528,591.08l5.073,38.046s-16.064,47.346.845,93l5.918,32.973h21.982l2.536-10.991s-10.146-8.455-10.146-27.9l8.455-87.082,1.691-44.809Z" transform="translate(-166.807 -146.69)"/>
    <path id="Tracé_3888" data-name="Tracé 3888" class="cls-5" d="M265.139,780.021s-8.455-5.073-9.3,0-10.991,28.746-1.691,28.746,24.518-4.227,24.518-4.227,9.3-6.764,20.291-6.764,13.527-13.527,11.836-16.909-5.918-8.455-10.146-7.609a55.9,55.9,0,0,1-9.3.845L278,767.468S276.13,780.867,265.139,780.021Z" transform="translate(-167.973 -174.995)"/>
    <path id="Tracé_3889" data-name="Tracé 3889" class="cls-6" d="M308.669,579.352l21.9,31.521s7.352,49.453,43.258,82.332l20.334,26.623,19.552-10.047-2.767-10.935s-12.888-2.883-21.775-20.178l-32.281-81.319L337.913,556.72Z" transform="translate(-177.001 -142.425)"/>
    <path id="Tracé_3890" data-name="Tracé 3890" class="cls-5" d="M414.422,737.7s-9.838-.648-8.272,4.251,3.362,30.591,11.634,26.34S437.66,753.32,437.66,753.32s5.181-10.267,14.956-15.29,5.849-18.214,2.8-20.45-9.128-4.815-12.5-2.131a55.91,55.91,0,0,1-7.885,5l-14.9.2S424.584,733.424,414.422,737.7Z" transform="translate(-192.04 -166.778)"/>
    <circle id="Ellipse_31" data-name="Ellipse 31" class="cls-6" cx="23.673" cy="23.673" r="23.673" transform="translate(79.835 168.348)"/>
    <path id="Tracé_3891" data-name="Tracé 3891" class="cls-6" d="M97.374,239.621,77.928,265.83l23.673,8.455,10.991-24.518Z" transform="translate(-12.043 -37.032)"/>
    <path id="Tracé_3892" data-name="Tracé 3892" class="cls-5" d="M281.979,344.864l-.974-.9a29.346,29.346,0,0,0-23.545-7.556h0s1.438-11.422-22.531-10.361l-11.287,9.516S208,351.2,212.228,374.878s4.65,83.278,4.65,83.278L229.56,562.147s95.537-4.227,113.291-43.118L288.742,405.737Z" transform="translate(-161.985 -106.766)"/>
    <path id="Tracé_3893" data-name="Tracé 3893" class="cls-6" d="M268.861,378.316l9.3,50.727L317.052,493.3s0,30.436,16.064,27.055-1.691-31.282-1.691-31.282l-34.664-68.482L290,378.316Z" transform="translate(-170.849 -114.854)"/>
    <path id="Tracé_3894" data-name="Tracé 3894" class="cls-5" d="M112.928,286.157l1.691,28.746,26.2-2.574L136.6,283.621Z" transform="translate(-17.452 -43.831)"/>
    <path id="Tracé_3895" data-name="Tracé 3895" class="cls-5" d="M291.562,280.034s13.968-26.87-18.99-28.468c0,0-19.694-11.62-36.308,12.252L219.1,288.934l4.1-.606.316,4.067,5.023,3.434,4.095-3.834-.949,6.132,43.7,21.158s-15.906-19.464-8.331-41.113l2.369,5.508Z" transform="translate(-163.158 -94.829)"/>
    <path id="Tracé_3896" data-name="Tracé 3896" class="cls-7" d="M556.7,592.6c-9.753,36.973-40.039,61.764-70.561,59.725-.432-.022-.87-.057-1.3-.1l-.064,1.591a1.108,1.108,0,0,1-.017.179,6.6,6.6,0,0,1-8.276,5.956l-8.256-2.178a6.607,6.607,0,0,1-4.342-9.111l.071-.154.816-1.82.18-.41c-26.292-14.027-39.534-49.679-30.007-85.8,10.81-40.977,46.823-67,80.448-58.134S567.506,551.621,556.7,592.6Z" transform="translate(-196.039 -133.754)"/>
    <ellipse id="Ellipse_32" data-name="Ellipse 32" class="cls-3" cx="19.101" cy="6.394" rx="19.101" ry="6.394" transform="translate(251.802 405.631) rotate(-45.222)"/>
    <path id="Tracé_3897" data-name="Tracé 3897" class="cls-2" d="M490.642,680.517a1.111,1.111,0,0,1-.017.179l-20.8-5.487.816-1.82L492,679.024c-.432-.022-.87-.057-1.3-.1Z" transform="translate(-201.906 -160.455)"/>
    <path id="Tracé_3898" data-name="Tracé 3898" class="cls-7" d="M760.635,163.707c29.3,20.14,40.964,53.686,28.9,78.79-.165.357-.343.716-.522,1.063l1.38.566a1.067,1.067,0,0,1,.152.072,5.845,5.845,0,0,1,2.466,8.9l-4.7,6.267a6.407,6.407,0,0,1-9.489.73l-.112-.11-1.329-1.275-.3-.284c-21.2,17.673-57.075,17.366-85.7-2.308-32.476-22.321-43.3-61.1-24.176-86.621S728.159,141.386,760.635,163.707Z" transform="translate(-230.951 -79.342)"/>
    <ellipse id="Ellipse_33" data-name="Ellipse 33" class="cls-3" cx="5.985" cy="17.388" rx="5.985" ry="17.388" transform="matrix(0.902, -0.431, 0.431, 0.902, 431.362, 127.888)"/>
    <path id="Tracé_3899" data-name="Tracé 3899" class="cls-2" d="M812.261,261.3a1.064,1.064,0,0,1,.152.072l-11.832,15.79-1.329-1.275L811.4,259.674c-.165.357-.343.716-.522,1.063Z" transform="translate(-252.817 -96.519)"/>
    <path id="Tracé_3900" data-name="Tracé 3900" class="cls-7" d="M543.879,107.364c17.688,30.8,13.7,66.047-8.012,83.445-.3.25-.618.5-.93.732l1,1.106a1.064,1.064,0,0,1,.106.13,5.838,5.838,0,0,1-1.626,9.083l-6.937,3.615a6.4,6.4,0,0,1-8.861-3.443l-.053-.147-.646-1.722-.149-.386c-26.731,6.755-58.9-9.02-76.182-39.1-19.6-34.134-12.6-73.734,15.652-88.456S524.275,73.23,543.879,107.364Z" transform="translate(-195.824 -66.696)"/>
    <ellipse id="Ellipse_34" data-name="Ellipse 34" class="cls-3" cx="17.368" cy="5.978" rx="17.368" ry="5.978" transform="translate(240.64 72.121) rotate(-89.897)"/>
    <path id="Tracé_3901" data-name="Tracé 3901" class="cls-2" d="M551.92,215.333a1.061,1.061,0,0,1,.106.13l-17.478,9.108-.646-1.722,17.949-9.354c-.3.25-.618.5-.93.732Z" transform="translate(-211.809 -89.382)"/>
    <path id="Tracé_3902" data-name="Tracé 3902" class="cls-1" d="M1028.724,692.447c-7.021,12.95-20.329,18.771-31.193,14.312-.154-.061-.31-.127-.46-.194l-.173.6a.446.446,0,0,1-.023.066,2.326,2.326,0,0,1-3.559,1.278l-2.785-1.827a2.811,2.811,0,0,1-.713-4l.04-.05.467-.6.1-.135c-8.2-8.529-9.632-23.747-2.774-36.4,7.781-14.353,23.281-19.955,34.624-12.513S1036.5,678.094,1028.724,692.447Z" transform="translate(-281.258 -156.793)"/>
    <ellipse id="Ellipse_35" data-name="Ellipse 35" class="cls-3" cx="7.108" cy="2.573" rx="7.108" ry="2.573" transform="translate(712.996 502.276) rotate(-30.313)"/>
    <path id="Tracé_3903" data-name="Tracé 3903" class="cls-2" d="M998.1,716.732a.442.442,0,0,1-.023.066l-7.017-4.6.467-.6,7.206,4.729c-.154-.061-.31-.127-.46-.194Z" transform="translate(-282.459 -166.36)"/>
  </g>
</svg>
